<svg xmlns="http://www.w3.org/2000/svg" viewBox="0 0 64 64" role="img" aria-label="AverySpot favicon">
  <defs>
    <linearGradient id="brandGradient" x1="10" y1="8" x2="56" y2="58" gradientUnits="userSpaceOnUse">
      <stop offset="0" stop-color="#2563eb"/>
      <stop offset="1" stop-color="#14b8a6"/>
    </linearGradient>
    <filter id="softShadow" x="-20%" y="-20%" width="140%" height="140%">
      <feDropShadow dx="0" dy="5" stdDeviation="4" flood-color="#0f172a" flood-opacity="0.22"/>
    </filter>
  </defs>
  <rect x="6" y="6" width="52" height="52" rx="12" fill="url(#brandGradient)" filter="url(#softShadow)"/>
  <path d="M19 43.5 28.4 20h7.2L45 43.5h-7.1l-1.5-4.2h-8.9L26 43.5h-7Zm10.2-9.8h5.6L32 25.9l-2.8 7.8Z" fill="#fff"/>
  <path d="M42.5 20.2c3.7.6 6 2.8 6 5.9 0 2.5-1.4 4.3-4.1 5.4l-2.8 1.1c-1.2.5-1.7 1-1.7 1.8 0 1 .9 1.6 2.5 1.6 1.8 0 3.6-.6 5.2-1.7v5.4c-1.5 1-3.5 1.5-6 1.5-5.4 0-8.7-2.6-8.7-6.7 0-2.7 1.6-4.7 4.8-6l2.8-1.1c.9-.4 1.3-.8 1.3-1.5 0-.8-.7-1.3-2.1-1.3-.7 0-1.4.1-2.1.3l2-5c.9 0 1.8.1 2.9.3Z" fill="#dffcf7" opacity="0.95"/>
</svg>
